<?xml version="1.0" encoding="UTF-8"?>
<!DOCTYPE svg PUBLIC "-//W3C//DTD SVG 1.1//EN" "http://www.w3.org/Graphics/SVG/1.1/DTD/svg11.dtd">
<svg xmlns="http://www.w3.org/2000/svg" version="1.1" width="395px" height="395px" style="shape-rendering:geometricPrecision; text-rendering:geometricPrecision; image-rendering:optimizeQuality; fill-rule:evenodd; clip-rule:evenodd" xmlns:xlink="http://www.w3.org/1999/xlink">
<g><path style="opacity:0.989" fill="#c900c5" d="M 193.5,-0.5 C 194.167,-0.5 194.833,-0.5 195.5,-0.5C 231.947,51.5504 268.28,103.717 304.5,156C 287.503,156.5 270.503,156.667 253.5,156.5C 214.167,155.167 174.833,155.167 135.5,156.5C 118.497,156.667 101.497,156.5 84.5,156C 120.72,103.717 157.053,51.5504 193.5,-0.5 Z"/></g>
<g><path style="opacity:0.992" fill="#a500c9" d="M 253.5,156.5 C 281.49,196.471 309.49,236.471 337.5,276.5C 319.512,277.5 301.512,277.833 283.5,277.5C 224.167,276.167 164.833,276.167 105.5,277.5C 87.4877,277.833 69.4877,277.5 51.5,276.5C 79.5097,236.471 107.51,196.471 135.5,156.5C 174.833,155.167 214.167,155.167 253.5,156.5 Z"/></g>
<g><path style="opacity:0.997" fill="#8500b8" d="M 283.5,277.5 C 310.403,315.63 337.07,353.963 363.5,392.5C 250.833,393.833 138.167,393.833 25.5,392.5C 51.93,353.963 78.5966,315.63 105.5,277.5C 164.833,276.167 224.167,276.167 283.5,277.5 Z"/></g>
</svg>
